<svg class="svg" width="24" height="24" viewBox="0 0 24 24" fill="none"
  xmlns="http://www.w3.org/2000/svg">
  <g>
    <path
      d="M12 14.4609C13.3591 14.4609 14.4609 13.3591 14.4609 12C14.4609 10.6409 13.3591 9.53906 12 9.53906C10.6409 9.53906 9.53906 10.6409 9.53906 12C9.53906 13.3591 10.6409 14.4609 12 14.4609Z"
      fill="#615D58" />
    <path
      d="M12 0.28125C5.52792 0.28125 0.28125 5.52792 0.28125 12C0.28125 18.4721 5.52792 23.7188 12 23.7188C18.4721 23.7188 23.7188 18.4721 23.7188 12C23.7188 5.52792 18.4721 0.28125 12 0.28125ZM19.2402 14.9784C19.184 16.0926 18.8709 17.1912 18.059 17.9945C17.2392 18.8055 16.1353 19.1076 15.0105 19.1633H8.98959C7.86459 19.1076 6.76087 18.8056 5.94108 17.9945C5.12911 17.1912 4.81608 16.0926 4.75983 14.9784V9.02156C4.81608 7.90744 5.12916 6.80878 5.94108 6.00544C6.76087 5.1945 7.86473 4.89234 8.98959 4.8367H15.0104C16.1354 4.89234 17.2391 5.19436 18.0589 6.00544C18.8709 6.80878 19.1839 7.90744 19.2402 9.02156L19.2402 14.9784Z"
      fill="#615D58" />
    <path
      d="M14.9344 6.19423C13.4678 6.15401 10.5325 6.15401 9.066 6.19423C8.30282 6.21518 7.43765 6.40516 6.8939 6.98595C6.32887 7.58965 6.11536 8.31902 6.0937 9.13498C6.05564 10.5671 6.0937 14.8655 6.0937 14.8655C6.1185 15.6814 6.32887 16.4109 6.8939 17.0146C7.43765 17.5955 8.30282 17.7853 9.066 17.8063C10.5325 17.8465 13.4678 17.8465 14.9344 17.8063C15.6975 17.7853 16.5627 17.5954 17.1065 17.0146C17.6715 16.4109 17.885 15.6815 17.9067 14.8655V9.13498C17.885 8.31902 17.6715 7.58965 17.1065 6.98595C16.5625 6.40498 15.6974 6.21518 14.9344 6.19423ZM12 15.8147C11.2456 15.8147 10.5081 15.591 9.8808 15.1719C9.25352 14.7527 8.76461 14.157 8.4759 13.46C8.18719 12.763 8.11166 11.996 8.25884 11.2561C8.40602 10.5162 8.76931 9.83649 9.30277 9.30303C9.83623 8.76957 10.5159 8.40628 11.2558 8.2591C11.9958 8.11192 12.7627 8.18746 13.4597 8.47616C14.1567 8.76487 14.7525 9.25378 15.1716 9.88106C15.5907 10.5083 15.8144 11.2458 15.8144 12.0003C15.8144 13.0119 15.4126 13.9821 14.6972 14.6975C13.9819 15.4128 13.0117 15.8147 12 15.8147ZM15.8307 8.97316C15.6798 8.97313 15.5323 8.92835 15.4069 8.8445C15.2814 8.76065 15.1837 8.64149 15.126 8.50209C15.0683 8.36269 15.0532 8.2093 15.0826 8.06133C15.1121 7.91335 15.1848 7.77744 15.2915 7.67076C15.3982 7.56409 15.5341 7.49145 15.6821 7.46203C15.8301 7.43261 15.9835 7.44773 16.1228 7.50547C16.2622 7.56322 16.3814 7.661 16.4652 7.78645C16.549 7.91191 16.5937 8.0594 16.5937 8.21027C16.5937 8.31047 16.574 8.40969 16.5357 8.50226C16.4973 8.59483 16.4411 8.67894 16.3702 8.74978C16.2994 8.82063 16.2153 8.87682 16.1227 8.91515C16.0301 8.95347 15.9309 8.97319 15.8307 8.97316Z"
      fill="#615D58" />
  </g>
</svg>