<svg width="200" height="119" viewBox="0 0 200 119" fill="none" xmlns="http://www.w3.org/2000/svg">
<path d="M32.1202 109.259L30.5089 118.12H0C0 118.12 0 117.75 0 117.607C1.17524 116.953 1.68707 115.852 1.68707 113.291V71.7767C1.68707 69.1394 1.17524 68.1149 0 67.4603C0 67.318 0 66.8721 0 66.8721H9.07025C9.07025 66.8721 9.07025 67.3085 9.07025 67.4603C7.97083 68.1149 7.45903 69.1489 7.45903 71.7767V117.617H14.1124C22.2348 117.617 28.2343 113.443 31.6653 108.974L32.1202 109.259Z" fill="black"/>
<path d="M98.3986 92.3442C98.3986 106.774 86.3334 118.556 71.8419 118.556C57.3598 118.556 45.2852 106.764 45.2852 92.3442C45.2852 77.8485 57.3503 66.1323 71.8419 66.1323C86.3239 66.1323 98.3986 77.8485 98.3986 92.3442ZM91.3756 86.3391C87.4233 73.4466 76.5997 64.1496 64.3829 67.8874C52.166 71.6252 48.3654 85.3904 52.3081 98.2735C56.2604 111.232 67.084 120.529 79.3009 116.801C91.5177 113.073 95.3278 99.3075 91.3756 86.3391Z" fill="black"/>
<path d="M146.384 80.9222L135.409 111.821L137.826 118.12H132.044C132.044 118.12 119.903 86.6332 117.704 80.9222C115.506 75.2871 112.804 70.7429 110.094 67.451V66.8628H121.287V67.451C119.458 69.3578 120.045 71.9192 122.093 77.2603L135.115 111.09L145.797 80.9222C148.138 74.3289 148.507 70.7429 145.361 67.451V66.8628H154.071V67.451C150.915 70.7429 148.801 74.1107 146.384 80.9222Z" fill="black"/>
<path d="M200 109.259L198.389 118.12H168.686C168.686 118.12 168.686 117.75 168.686 117.607C169.785 116.953 170.297 115.852 170.297 113.291V71.7767C170.297 69.2153 169.785 68.1149 168.686 67.4603C168.686 67.318 168.686 66.8721 168.686 66.8721H196.048L197.583 75.0022L197.214 75.2963C193.849 71.4921 189.309 67.4603 181.196 67.4603H176.078V89.0617L194.512 87.4489V91.1866L176.078 89.6499V117.617H182.002C190.048 117.617 196.124 113.443 199.555 108.974L200 109.259Z" fill="black"/>
<path d="M50.6593 11.0616C48.3372 19.315 45.5413 27.4642 42.9349 35.6228C40.2337 43.772 37.8359 51.9306 35.5991 60.7628C34.7745 63.7701 34.0921 66.5876 34.0732 69.4052C36.2436 67.5647 37.6747 64.9369 39.3902 62.3185C41.1152 59.7002 42.897 57.2716 44.584 54.843C51.4838 44.8439 59.0092 35.7177 67.1127 27.1796C68.9893 25.3392 71.2924 23.2995 73.586 21.2598C75.8512 19.4194 78.4197 17.4747 81.1588 16.7916C83.2818 16.3078 84.9878 17.0856 85.6417 18.3474C87.471 22.8156 84.9119 30.1869 82.6468 35.3382C78.5239 45.527 73.4438 54.5584 68.7239 64.2633C67.0274 67.8588 65.3593 71.2551 63.7481 75.4293C63.1984 76.8807 62.4401 78.4366 62.5444 79.5086C62.715 80.1916 62.6676 79.8976 63.0088 80.1916C63.0847 80.2865 63.7671 80.2865 63.3879 80.7703C62.5729 81.5482 62.0895 80.96 61.8525 80.6754C61.028 79.3188 62.298 76.5013 62.8572 74.9455C65.8048 67.5648 69.2831 61.0663 72.7425 54.0746L79.4338 40.2903C81.7085 35.6322 84.0589 30.5853 85.0162 25.1494C85.6133 21.7531 85.5849 18.0628 82.6657 17.579C79.4149 17.8731 76.7421 19.8084 74.4769 21.6583C67.6529 27.3883 61.4924 34.2757 55.891 41.2675C50.0811 48.3541 44.8873 55.8296 39.6366 63.5898L37.0113 67.4698C36.1393 68.5418 34.8977 70.6764 33.7509 70.572C32.6799 70.572 33.0401 68.5324 33.2012 67.0809C34.0068 62.5178 35.2579 58.1539 36.3857 53.9797C40.4517 39.7116 45.2001 26.506 49.1333 12.4371C49.92 9.61957 51.0005 6.81153 50.8488 3.79473C49.7305 4.08882 49.1713 5.05647 48.6689 5.73952C44.2523 11.5644 40.9635 18.651 37.7411 25.9273C34.0732 34.0765 30.7749 42.9182 27.7231 51.9401C24.6996 60.8671 21.9511 70.3823 19.7049 80.3814C17.7998 89.0238 16.0749 98.2449 15.3451 106.783C15.2408 107.95 14.9281 109.695 15.1366 110.179C15.402 110.862 15.8284 110.084 15.9706 110.957C14.3499 112.997 14.1983 110.568 14.2172 108.823C14.3499 105.332 15.1176 100.958 15.4588 97.3721C17.7051 81.8423 22.3018 66.2081 26.5383 52.623C31.8933 37.0932 37.9401 20.3965 46.091 7.67477C47.2852 5.83433 48.9817 3.4057 50.6498 2.72266C50.9436 2.72266 51.1142 2.81752 51.408 2.81752C52.5453 4.75282 51.4459 8.24399 50.6593 11.0616Z" fill="black"/>
<path d="M83.1779 47.7564C82.4576 49.113 81.1307 52.2246 82.6756 52.8033C86.5046 52.5092 88.5802 50.6688 91.452 49.2078L95.3758 46.7792C95.9255 46.3903 96.5037 45.9065 97.2619 45.4226C97.8116 45.0337 98.5319 44.2557 99.129 44.749C98.8825 45.6218 97.9917 45.7168 97.4135 46.2006C93.1011 49.2079 88.9972 52.1203 83.6802 53.6761H82.3249L81.6994 53.382C80.5905 52.5092 81.0549 49.8909 82.0027 48.3351C81.9553 48.041 81.1307 48.3351 81.5383 47.652C81.8795 47.3579 82.2491 47.4622 82.5903 47.1682C83.6233 45.7167 85.1493 43.0889 86.8268 42.4153C87.3481 42.2256 87.7936 42.4153 88.0021 42.8991C87.2439 45.6218 85.244 46.4946 83.1779 47.7564ZM87.0922 43.1933C85.8696 44.066 84.9218 45.0337 84.3342 46.2006C85.2535 45.3278 86.732 44.6447 87.0922 43.1933Z" fill="black"/>
<path d="M104.512 45.0336C104.588 45.1285 104.607 45.0336 104.626 44.9387C109.128 37.558 113.128 30.2817 117.478 22.6164C119.601 18.8312 121.781 15.2357 123.648 11.2607C125.07 8.15854 126.472 5.14179 128.112 2.42858C128.747 1.55579 128.975 0.29409 130.093 0C130.747 0.683047 130.017 1.55579 129.581 2.33371C129.155 3.11162 128.804 3.98437 128.396 4.66741C122.046 15.9282 117.061 28.2516 112.512 41.4572C107.953 54.6627 103.167 68.0581 100.797 83.1989C100.807 83.6828 101.717 83.493 101.48 84.2709C101.262 84.9445 100.901 85.3429 100.418 85.3429C99.5461 85.3429 99.8399 83.1135 100.048 81.9467C100.769 77.2887 101.735 72.9152 102.806 69.0351C107.185 52.4333 112.986 37.1027 118.511 22.8346C113.033 32.4447 107.754 42.0548 101.859 51.276C100.901 52.8318 99.8778 54.2833 98.7784 55.545C97.4894 56.8068 96.7122 58.4574 94.8072 58.8464C93.5941 58.5523 93.6888 57.4897 93.6035 56.3229C94.1722 52.5376 95.4233 49.815 96.9871 47.0069C98.6552 44.6732 99.802 41.4761 103.091 40.9923C104.863 41.3812 105.11 42.7378 104.617 44.9767C104.531 44.9388 104.531 44.9387 104.512 45.0336ZM103.261 47.1681C104.01 44.5498 104.228 40.5654 101.574 42.4153C98.8826 44.4549 95.8687 50.574 94.8925 54.454C94.6745 55.7158 94.447 56.9775 94.9778 57.8503C97.006 56.7783 98.1244 54.843 99.5176 52.993C100.911 51.1526 102.143 49.1129 103.261 47.1681Z" fill="black"/>
<path d="M145.21 44.6446C143.21 47.1681 139.561 52.5092 141.305 55.8106C141.836 56.1046 142.499 56.1995 143.191 56.1046C145.892 55.6208 148.195 53.5811 150.423 51.9304C152.754 50.2797 154.982 48.6291 156.887 47.1776C157.683 46.4946 158.337 46.1056 159.095 45.6217C159.863 45.1379 160.611 44.1703 161.417 44.5497C161.625 45.0336 160.905 45.2328 160.564 45.5174C159.379 46.2005 158.157 47.0732 157.133 47.946C155.683 49.018 154.138 50.0805 152.669 51.2474C149.56 53.4768 147.001 55.9054 143.03 56.9774H141.675C140.462 56.6833 139.874 55.6208 139.874 53.9701C140.509 49.7959 142.348 47.0827 144.366 44.4549C144.366 44.4549 144.48 44.36 144.594 44.2651C145.011 44.1608 144.935 44.5497 145.21 44.6446ZM149.598 37.3682C148.338 37.3682 149.674 34.7499 150.224 36.0117C149.864 36.4006 150.328 37.0742 149.598 37.3682Z" fill="black"/>
<path d="M160.582 48.2401C161.492 47.4622 162.212 46.6842 163.236 45.8114C164.032 45.1284 165.501 43.9616 166.515 44.2557C168.885 44.5498 166.345 50.1754 168.24 50.9533C170.193 50.8584 171.728 49.8813 173.339 49.0085C174.932 48.2306 176.363 47.2629 177.813 46.1909C178.77 45.7071 179.576 44.4454 180.817 44.5403C180.988 45.2233 180.078 45.413 179.623 45.802C179.168 46.1909 178.628 46.4755 178.268 46.874C176.856 47.7468 175.311 48.8188 173.605 49.6916C172.202 50.4695 169.918 51.9209 168.382 51.8261C165.283 51.8261 167.51 46.8739 166.278 45.0335C164.97 45.3276 163.918 46.2952 163.009 47.0732C160.241 49.5966 157.606 52.4142 155.019 55.5164C154.289 55.8105 154.298 56.8731 153.246 56.7782C152.687 56.0951 153.682 55.4216 153.9 54.7385L155.114 52.7937C156.839 50.1754 158.45 47.6519 160.364 45.0241C161.104 44.1513 163.71 39.7779 163.956 42.7947C163.596 43.1836 163.34 42.9844 163.103 42.6998C160.279 46.0961 157.995 49.6915 155.673 53.4767C157.464 51.6363 158.838 49.8908 160.582 48.2401Z" fill="black"/>
</svg>
